<svg xmlns="http://www.w3.org/2000/svg" xmlns:svg="http://www.w3.org/2000/svg" width="1500" height="1500" viewBox="0 0 396.875 396.875" id="svg1" xml:space="preserve"><defs id="defs1"></defs><g id="layer1" transform="translate(-406.875)"><path style="fill:#f1f4f8;fill-opacity:1;stroke:none" d="m 674.0895,191.6047 v 84.20292 43.60508 c 0,4.64736 -1.64282,13.27078 1.20545,17.19131 4.35084,5.98875 20.05494,3.1076 26.61159,3.1076 h 68.41487 c 6.2559,0 19.67437,2.51057 24.31902,-2.57042 3.45414,-3.77865 1.99439,-11.5154 1.99439,-16.22487 V 279.56668 115.67172 69.8112 c 0,-5.013493 1.5842,-13.429412 -3.10761,-16.838032 -4.04293,-2.9372 -13.14115,-1.20545 -17.94312,-1.20545 h -47.36414 -34.58334 c -4.66588,0 -11.37666,-1.213365 -15.75556,0.558054 -6.18313,2.501298 -12.94446,13.255867 -17.45179,18.23724 -12.59781,13.922742 -26.49283,26.671149 -39.09421,40.597828 -40.70813,44.98952 -84.02534,88.66384 -126.92856,131.56706 -20.42184,20.42185 -39.72307,41.9785 -60.14494,62.40037 -5.39904,5.39904 -10.41589,11.13025 -15.78863,16.53986 -2.49283,2.50995 -5.99272,5.25828 -6.43622,9.02174 -0.79822,6.77356 6.0328,7.51622 10.94768,7.51812 h 40.59783 51.87501 c 6.54525,0 16.41185,1.84305 22.54333,-0.55805 5.84478,-2.28884 10.91654,-10.72151 15.11455,-15.23 11.38308,-12.22494 23.12861,-24.2283 34.08329,-36.83877 27.77432,-31.97233 56.9868,-63.98944 86.89111,-93.97647 z" id="path2"></path></g></svg>